<svg width="204" height="41" viewBox="0 0 204 41" fill="none" xmlns="http://www.w3.org/2000/svg">
<g clip-path="url(#clip0_104_505)">
<path d="M12.4778 17.2277L20.402 9.26799L28.3295 17.2342L32.9377 12.6002L20.402 0L7.86633 12.597L12.4778 17.2277Z" fill="#896E6E"/>
<path d="M-0.00158691 20.501L4.60819 15.8687L9.21797 20.501L4.60819 25.1333L-0.00158691 20.501Z" fill="#896E6E"/>
<path d="M12.4777 23.7718L20.4019 31.7348L28.3294 23.7686L32.9408 28.3961L32.9376 28.3993L20.4019 40.9995L7.86619 28.4058L7.85974 28.3993L12.4777 23.7718Z" fill="#896E6E"/>
<path d="M31.5782 20.502L36.188 15.8696L40.7978 20.502L36.188 25.1343L31.5782 20.502Z" fill="#896E6E"/>
<path d="M25.0779 20.4989L20.402 15.7969L16.9442 19.2716L16.5446 19.6699L15.726 20.4924L15.7196 20.4989L15.726 20.5086L20.402 25.2041L25.0779 20.5021L25.0811 20.4989H25.0779Z" fill="#896E6E"/>
<path d="M47.9901 9.93457H58.0187C60.5065 9.93457 62.3884 10.5822 63.6646 11.8775C64.1454 12.356 64.5244 12.9277 64.7787 13.5578C65.0329 14.188 65.1571 14.8635 65.1437 15.5433V15.6048C65.1524 16.1617 65.0752 16.7167 64.9149 17.2499C64.7722 17.7089 64.5649 18.1451 64.2994 18.5452C64.0519 18.9225 63.7525 19.2627 63.41 19.5555C63.0754 19.8449 62.7088 20.0949 62.3176 20.3003C63.4459 20.6953 64.4606 21.3625 65.2726 22.2433C65.9902 23.0637 66.349 24.1971 66.349 25.6435V25.705C66.3693 26.6084 66.1737 27.5035 65.7786 28.3151C65.3957 29.0629 64.8343 29.7038 64.1447 30.1804C63.3651 30.7056 62.4971 31.0841 61.5828 31.2976C60.4966 31.5564 59.3831 31.6815 58.2668 31.67H47.9901V9.93457ZM57.0132 18.7233C57.8809 18.7654 58.7443 18.5778 59.5172 18.1793C59.8185 18.0024 60.0646 17.7442 60.2275 17.434C60.3904 17.1238 60.4636 16.774 60.4388 16.4241V16.3626C60.4548 16.0402 60.3896 15.719 60.2494 15.4287C60.1091 15.1383 59.8983 14.8882 59.6364 14.7013C59.1015 14.3192 58.3291 14.1282 57.3194 14.1282H52.6274V18.7233H57.0132ZM58.2797 27.4829C59.1441 27.5315 60.0046 27.3328 60.7611 26.9097C61.0558 26.7194 61.2943 26.4532 61.4519 26.1388C61.6094 25.8245 61.6803 25.4734 61.6569 25.1222V25.0606C61.6685 24.7268 61.5985 24.3952 61.453 24.0948C61.3075 23.7945 61.0909 23.5346 60.8223 23.3379C60.268 22.9061 59.3721 22.6902 58.1347 22.6902H52.6274V27.4829H58.2797Z" fill="#896E6E"/>
<path d="M72.3236 9.93457H77.0833V31.6765H72.3236V9.93457Z" fill="#896E6E"/>
<path d="M84.2858 9.93457H88.6749L98.8194 23.3152V9.93457H103.518V31.6765H99.4672L88.9907 17.8554V31.6765H84.2858V9.93457Z" fill="#896E6E"/>
<path d="M117.929 9.7793H122.312L131.583 31.6766H126.614L124.635 26.7998H115.486L113.508 31.6766H108.655L117.929 9.7793ZM122.937 22.577L120.056 15.524L117.188 22.577H122.937Z" fill="#896E6E"/>
<path d="M136.729 9.93457H141.118L151.257 23.3152V9.93457H155.955V31.6765H151.904L141.428 17.8554V31.6765H136.729V9.93457Z" fill="#896E6E"/>
<path d="M173.086 32.0589C171.569 32.0719 170.065 31.7768 168.665 31.191C167.346 30.644 166.15 29.8372 165.147 28.8183C164.143 27.7995 163.353 26.5891 162.822 25.2585C162.262 23.8667 161.979 22.3783 161.988 20.8771V20.8156C161.963 17.8565 163.096 15.006 165.143 12.8785C166.15 11.8393 167.355 11.0153 168.687 10.4563C170.136 9.85317 171.692 9.55239 173.26 9.57221C174.188 9.56525 175.114 9.64876 176.025 9.82156C176.805 9.96976 177.567 10.1987 178.3 10.5048C178.965 10.7861 179.597 11.1402 180.185 11.5605C180.759 11.9705 181.298 12.4276 181.797 12.9271L178.771 16.4374C177.997 15.7206 177.13 15.1137 176.193 14.6337C175.272 14.1912 174.261 13.9695 173.241 13.986C172.391 13.9769 171.55 14.1495 170.772 14.4923C169.994 14.8351 169.298 15.3403 168.729 15.9743C168.165 16.6067 167.724 17.3392 167.427 18.1342C167.117 18.9744 166.961 19.8643 166.966 20.7605V20.822C166.963 21.717 167.12 22.6053 167.427 23.445C167.72 24.2429 168.157 24.9796 168.716 25.6179C169.28 26.2598 169.975 26.7724 170.754 27.1211C171.532 27.4697 172.376 27.6462 173.228 27.6386C174.313 27.673 175.39 27.4383 176.363 26.9554C177.29 26.4478 178.147 25.8207 178.912 25.0901L181.942 28.1665C181.407 28.7498 180.828 29.2911 180.211 29.7856C179.605 30.2673 178.947 30.679 178.249 31.0129C177.505 31.3647 176.721 31.6246 175.916 31.7869C174.984 31.9745 174.036 32.0657 173.086 32.0589Z" fill="#896E6E"/>
<path d="M187.558 9.93457H203.842V14.1897H192.241V18.6002H202.456V22.8554H192.257V27.4213H204.003V31.6765H187.568L187.558 9.93457Z" fill="#896E6E"/>
</g>
<defs>
<clipPath id="clip0_104_505">
<rect width="204" height="41" fill="white"/>
</clipPath>
</defs>
</svg>
