<svg width="178" height="29" viewBox="0 0 178 29" fill="none" xmlns="http://www.w3.org/2000/svg">
<g clip-path="url(#clip0_104_520)">
<path d="M15.1355 0.532227H31.7689C31.7588 0.74813 31.6827 0.956064 31.5507 1.12902C30.9876 2.0767 30.4808 3.06307 29.9276 4.01075C29.1449 5.37149 28.4129 6.7571 27.6176 8.11231C27.1136 9.08762 26.5449 10.0325 26.0072 10.9913C22.7751 10.9913 19.543 10.9913 16.311 10.9913C16.142 10.9913 15.9745 10.9996 15.8056 11.0092C15.6648 11.3739 15.4312 11.6931 15.2425 12.0357C14.9962 12.428 14.7963 12.8466 14.5528 13.2389C14.2951 13.7666 13.939 14.2391 13.68 14.7654C13.1451 15.6565 12.6453 16.5613 12.1217 17.462C11.5755 18.383 11.0415 19.3169 10.5197 20.2637C10.2989 20.5992 10.0955 20.9455 9.91017 21.3011C8.81639 23.1689 7.75781 25.0532 6.66262 26.9195C6.56973 27.1202 6.44737 27.3063 6.29944 27.4721C4.4272 27.4597 2.55497 27.4721 0.682732 27.4721C0.452138 27.4764 0.22291 27.508 0 27.5661C0 27.0577 0.346293 26.6502 0.57997 26.2233C0.861509 25.65 1.23736 25.1181 1.52031 24.5434C3.76418 20.6035 5.98411 16.6497 8.22094 12.7071C8.72771 11.8505 9.16269 10.9761 9.67227 10.1362C10.3086 9.03098 10.9012 7.90095 11.5642 6.80821C11.7754 6.35095 12.0597 5.93236 12.292 5.48615C13.1169 4.04529 13.9263 2.59613 14.7484 1.15527C14.846 0.930244 14.9764 0.720361 15.1355 0.532227Z" fill="#896E6E"/>
<path d="M34.4096 6.33304C35.5174 4.43353 36.5873 2.51329 37.7106 0.62207H43.7187C43.8062 0.626415 43.893 0.639844 43.9777 0.662133C43.7778 0.959147 43.6103 1.27412 43.4343 1.58357C41.9853 4.13559 40.5406 6.68899 39.1 9.24378C38.4947 10.284 37.9316 11.3477 37.3179 12.3825L37.2573 12.4032L37.2461 12.533C34.4213 17.5063 31.6059 22.4833 28.7999 27.4639C23.2845 27.4694 17.7687 27.4694 12.2524 27.4639C12.5664 26.8201 12.938 26.2054 13.2871 25.5796C14.8581 22.7448 16.4699 19.9349 18.0184 17.1002C21.4072 17.0946 24.7959 17.0946 28.1847 17.1002C30.278 13.5222 32.3262 9.91655 34.4039 6.33304H34.4096Z" fill="#896E6E"/>
<path d="M96.4146 0.548828V27.7913H101.225V8.63453L109.999 21.2514L118.703 8.33475V27.7913H123.653V0.548828H118.328L110.034 13.1243L101.647 0.548828H96.4146Z" fill="#896E6E"/>
<path d="M73.915 7.57422H77.0584V28.0199H73.915V7.57422Z" fill="#896E6E"/>
<path d="M73.645 0H77.329V3.43017H73.645V0Z" fill="#896E6E"/>
<path d="M83.0653 1.71582H86.3495V7.5746H92.8249V10.4301H86.3495V22.5759C86.3438 23.0439 86.4545 23.5062 86.6718 23.9228C87.2279 24.9589 88.7383 26.1884 92.8249 24.7517V27.3986C92.8249 27.3986 89.0945 29.4708 85.716 27.5837C85.716 27.5837 84.038 26.8847 83.3328 24.5251C83.1496 23.8931 83.0595 23.2385 83.0653 22.5814V10.3845L80.2964 10.4301V7.5746H83.0878L83.0653 1.71582Z" fill="#896E6E"/>
<path d="M128.721 0.548828V27.975H149.601V23.5543H133.812V16.2782H147.725V11.9266H133.788V4.99714H149.438V0.548828H128.721Z" fill="#896E6E"/>
<path d="M151.561 0.548828H157.508L164.335 10.1776L171.109 0.548828H177.057L167.344 13.9242L177.662 27.9515H171.398L164.359 17.7066L156.98 27.975H151.033L161.203 14.0457L151.561 0.548828Z" fill="#896E6E"/>
<path d="M64.2947 13.7454C64.2947 13.7454 68.8936 12.0421 68.6121 7.13788C68.6121 7.13788 68.5741 2.42156 63.1629 0.965503C62.2632 0.728929 61.3352 0.611842 60.4038 0.617375H47.4263L47.4615 27.8598H61.4328C61.4328 27.8598 69.6087 27.6871 70.1845 20.5381C70.1845 20.5381 70.7701 15.5413 64.2947 13.7454ZM50.7808 3.43003H59.0637C65.5616 3.40793 65.3744 7.89768 65.3744 7.89768C65.4715 13.0201 59.5085 12.9165 59.5085 12.9165H50.7808V3.43003ZM60.9162 24.9809H50.7808V15.4957H60.4714C66.9693 15.4722 66.7821 19.962 66.7821 19.962C66.8792 25.0845 60.9162 24.9809 60.9162 24.9809Z" fill="#896E6E"/>
</g>
<defs>
<clipPath id="clip0_104_520">
<rect width="177.662" height="28.3766" fill="white"/>
</clipPath>
</defs>
</svg>
