<svg width="309" height="24" viewBox="0 0 309 24" fill="none" xmlns="http://www.w3.org/2000/svg">
<path fill-rule="evenodd" clip-rule="evenodd" d="M78.7747 18.25C80.6043 18.25 82.2814 17.45 83.4503 16.25C83.7044 15.95 84.2635 15.4 84.2127 15.5L88.126 19.65C85.8898 22.3 82.5355 24 78.7238 24C71.9645 24 66.5265 18.65 66.5265 12C66.5265 5.35 71.9645 0 78.7238 0C82.3322 0 85.5849 1.55 87.8211 4L83.9077 8.15L82.9929 7.25C81.8748 6.25 80.401 5.65 78.7747 5.65C75.2679 5.65 72.3711 8.45 72.3711 11.95C72.3711 15.4 75.2171 18.25 78.7747 18.25ZM229.311 23.6C231.14 23.6 232.411 22.35 232.411 20.55C232.411 18.8 231.14 17.6 229.311 17.55C227.532 17.55 226.261 18.8 226.261 20.55C226.261 22.35 227.532 23.6 229.311 23.6ZM129.75 16.35C128.581 17.55 126.903 18.35 125.074 18.35C121.516 18.35 118.67 15.5 118.67 12.05C118.67 8.55 121.567 5.75 125.074 5.75C126.7 5.75 128.174 6.35 129.292 7.35L130.207 8.25L134.171 4C131.935 1.55 128.682 0 125.074 0C118.314 0 112.876 5.35 112.876 12C112.876 18.65 118.314 24 125.074 24C128.886 24 132.24 22.3 134.476 19.65L130.563 15.5C130.563 15.5 130.004 16.05 129.75 16.35ZM246.438 18.25C248.267 18.25 249.944 17.45 251.113 16.25C251.367 15.95 251.926 15.4 251.876 15.5L255.789 19.65C253.553 22.3 250.199 24 246.387 24C239.627 24 234.189 18.65 234.189 12C234.189 5.35 239.627 0 246.387 0C249.995 0 253.248 1.55 255.484 4L251.571 8.15L250.656 7.25C249.538 6.25 248.064 5.65 246.438 5.65C242.931 5.65 240.034 8.45 240.034 11.95C240.034 15.4 242.88 18.25 246.438 18.25ZM16.4664 11.5C18.5502 10.6 20.0748 9.05 20.0748 6.35V6.3C20.0748 4.7 19.5158 3.5 18.5502 2.6C17.178 1.2 15.1451 0.5 12.1974 0.5H0V23.5H12.2482C17.8387 23.5 21.0913 21.1 21.0913 17.15V17.1C21.0913 13.95 19.3125 12.4 16.4664 11.5ZM6.50526 5.6H10.7235C12.6548 5.6 13.6712 6.3 13.6712 7.55V7.6C13.6712 8.95 12.5531 9.6 10.5711 9.6H6.50526V5.6ZM14.6368 16.3C14.6368 17.65 13.5188 18.4 11.5367 18.4H6.50526V14.15H11.435C13.6204 14.15 14.586 14.95 14.586 16.2V16.3H14.6368ZM23.1242 0.5H29.6294V17.95H40.1497V23.5H23.1242V0.5ZM152.365 9.1H144.031V0.5H137.525V23.55L144.031 23.5V14.75H152.365V23.5H158.871V0.5H152.365V9.1ZM171.627 0.5H177.827L187.738 23.5H180.826L179.149 19.4H170.204L168.527 23.5H161.768L171.627 0.5ZM174.626 8L172.034 14.5H177.218L174.626 8ZM197.14 0.5H190.635V23.55H197.14V0.5ZM215.944 12.7V0.55H222.45V23.55H216.707L206.695 10.9V23.55H200.189V0.5L206.288 0.55L215.944 12.7ZM112.978 0.5H105.304L97.2232 9.85V0.5H90.7179V23.55H97.2232V17.6L99.6118 15L106.168 23.55H113.893L103.83 10.4L112.978 0.5ZM40.6579 12C40.6579 5.35 46.0959 0 52.8553 0C59.5638 0 65.0526 5.35 65.0526 12C65.0526 18.65 59.6146 24 52.8553 24C46.0959 24 40.6579 18.65 40.6579 12ZM46.4516 12C46.4516 15.45 49.2977 18.3 52.8553 18.3C56.4128 18.3 59.2589 15.5 59.2589 12C59.2589 8.55 56.4128 5.7 52.8553 5.7C49.3485 5.7 46.4516 8.5 46.4516 12ZM268.545 0C261.786 0 256.348 5.35 256.348 12C256.348 18.65 261.786 24 268.545 24C275.305 24 280.743 18.65 280.743 12C280.743 5.35 275.305 0 268.545 0ZM268.545 18.3C264.988 18.3 262.142 15.45 262.142 12C262.142 8.5 265.039 5.7 268.545 5.7C272.103 5.7 274.949 8.55 274.949 12C275 15.5 272.103 18.3 268.545 18.3ZM302.901 9.85L298.226 21.15H293.702L289.027 9.85V23.45H282.928V0.5H290.348L295.99 13.2L301.631 0.5H309V23.45H302.901V9.85Z" fill="#896E6E"/>
</svg>
