<svg width="149" height="33" viewBox="0 0 149 33" fill="none" xmlns="http://www.w3.org/2000/svg">
<path fill-rule="evenodd" clip-rule="evenodd" d="M11.5959 28.8397C12.7569 28.8397 13.8297 28.6255 14.8466 28.2224C14.8553 28.2425 16.9252 31.5057 16.955 31.5284C15.0813 32.5502 13.1232 33 10.9825 33C4.619 33 0 28.7452 0 21.953C0 15.1116 4.85492 10.8568 10.9825 10.8568C13.1642 10.8568 14.8839 11.3368 16.616 12.2767C16.4248 12.5993 14.6417 15.671 14.6355 15.6836C13.6082 15.2688 12.5116 15.0592 11.4059 15.0662C7.63501 15.0662 4.71337 17.5054 4.71337 21.953C4.71337 26.1611 7.54064 28.8397 11.5959 28.8397ZM27.6457 10.8568C33.9149 10.8568 38.4395 15.3535 38.4395 21.953C38.4395 28.5046 33.9149 33 27.6457 33C21.425 33 16.9003 28.5058 16.9003 21.953C16.9003 15.3535 21.425 10.8568 27.6457 10.8568ZM27.6457 14.9226C24.1591 14.9226 21.6124 17.6491 21.6124 21.953C21.6124 26.2103 24.1579 28.9355 27.647 28.9355C31.2292 28.9355 33.7274 26.2103 33.7274 21.953C33.7274 17.6491 31.2292 14.9226 27.6457 14.9226ZM41.4096 32.5225V11.3343H46.0745V32.5225H41.4096ZM40.7962 4.8293C40.7962 3.20399 42.1645 1.91383 43.7191 1.91383C45.2749 1.91383 46.6407 3.20399 46.6407 4.83056C46.6407 6.505 45.2749 7.8443 43.7191 7.8443C42.1645 7.8443 40.7962 6.505 40.7962 4.83056V4.8293ZM50.146 12.6749C53.0676 11.5271 56.6523 10.8568 59.7142 10.8568C65.041 10.8568 68.4345 12.913 68.4345 18.8913V32.5225H63.8155V19.3222C63.8155 16.2619 61.9306 15.1607 59.3368 15.1607C57.6866 15.1607 56.0389 15.4001 54.8121 15.7831V32.5225H50.146V12.6749ZM72.342 0H77.0069V11.9101C77.9965 11.3834 79.9286 10.8568 81.7662 10.8568C87.8007 10.8568 92.3241 14.7777 92.3241 21.5699C92.3241 28.4088 87.8479 33 80.1185 33C77.4674 32.9922 74.8371 32.5234 72.342 31.6141V0ZM77.0069 28.5058C77.9022 28.7918 79.0805 28.9342 80.2589 28.9342C84.5476 28.9342 87.612 26.5441 87.612 21.6644C87.612 17.552 84.7375 15.1128 81.2025 15.1128C79.3649 15.1128 77.9494 15.5916 77.0057 16.1182L77.0069 28.5058ZM105.804 18.3168C105.804 16.0212 104.106 14.9704 101.797 14.9704C99.3929 14.9704 97.5081 15.6873 95.7648 16.6915V12.5778C97.6024 11.5271 99.9579 10.8568 102.552 10.8568C107.122 10.8568 110.374 12.7694 110.374 18.0774V32.0916C108.395 32.617 105.569 32.9534 103.212 32.9534C97.7912 32.9534 93.8315 31.2789 93.8315 26.4963C93.8315 22.1924 97.4597 20.0883 103.493 20.0883H105.802L105.804 18.3168ZM105.804 23.2431H103.824C100.571 23.2431 98.4505 24.2007 98.4505 26.3526C98.4505 28.5525 100.431 29.413 103.258 29.413C103.966 29.413 104.956 29.3172 105.804 29.1736V23.2431ZM113.768 26.7835C115.701 28.2652 118.009 29.1736 120.13 29.1736C122.205 29.1736 123.572 28.4567 123.572 26.7835C123.572 25.0599 122.346 24.4388 119.661 23.7219C115.324 22.7177 113.485 20.9488 113.485 17.266C113.485 12.9609 116.691 10.8568 120.932 10.8568C123.289 10.8568 125.174 11.3834 126.917 12.4821V16.8351C125.079 15.4971 123.289 14.6832 121.074 14.6832C119.047 14.6832 117.963 15.6873 117.963 17.0745C117.963 18.4604 118.857 19.1786 121.262 19.8464C126.024 20.8997 128.097 22.719 128.097 26.5441C128.097 30.9917 124.75 33 120.226 33C117.775 33 115.324 32.3322 113.769 31.2789L113.768 26.7835ZM134.484 23.005V23.1008C134.767 26.878 137.97 28.9342 141.222 28.9342C144.098 28.9342 146.173 28.2652 148.245 26.878V31.0408C146.36 32.3789 143.579 33 140.894 33C134.389 33 129.959 28.7918 129.959 22.0966C129.959 15.3535 134.294 10.858 140.045 10.858C146.124 10.858 149 14.8268 149 20.6124V23.0063L134.484 23.005ZM144.616 19.9434C144.523 16.6424 142.921 14.8268 139.904 14.8268C137.217 14.8268 135.237 16.7406 134.625 19.9446L144.616 19.9434Z" fill="#896E6E"/>
</svg>
