<svg width="29" height="27" viewBox="0 0 29 27" fill="none" xmlns="http://www.w3.org/2000/svg">
<path d="M2.14767 6.73313C2.14767 9.02506 2.92558 10.6788 4.45801 11.6499C5.71451 12.4476 7.17056 12.5673 7.9282 12.5673C8.11215 12.5673 8.26025 12.5581 8.36314 12.5519C8.36314 12.5519 8.12306 14.0922 9.28291 15.614H9.22991C7.22044 15.614 0.666687 16.0266 0.666687 21.3315C0.666687 26.7254 6.68573 27 7.8939 27C7.989 27 8.04512 26.9969 8.04512 26.9969C8.05759 26.9969 8.14333 27 8.29143 27C9.06622 27 11.0694 26.9049 12.9293 26.0136C15.3425 24.863 16.5662 22.8549 16.5662 20.0536C16.5662 17.3475 14.7018 15.7367 13.3408 14.5585C12.5099 13.839 11.7912 13.2193 11.7912 12.6164C11.7912 12.0027 12.3166 11.541 12.9791 10.9565C14.0532 10.013 15.0666 8.66761 15.0666 6.12409C15.0666 3.88892 14.7719 2.38705 12.9558 1.43438C13.1444 1.33926 13.8147 1.27023 14.1452 1.2242C15.1289 1.09227 16.5678 0.941932 16.5678 0.151875V0H9.39827C9.32656 0.00306818 2.14767 0.263864 2.14767 6.73313ZM13.7212 20.5599C13.8584 22.7168 11.983 24.3077 9.16599 24.5086C6.30535 24.7157 3.95136 23.4486 3.81417 21.2932C3.74714 20.2561 4.21014 19.2436 5.11588 18.4352C6.03409 17.6175 7.29527 17.1112 8.66713 17.0115C8.82926 17.0023 8.98983 16.9931 9.1504 16.9931C11.799 16.9947 13.5918 18.5257 13.7212 20.5599ZM11.8489 5.2558C12.552 7.69193 11.4904 10.2355 9.79736 10.7064C9.60247 10.7599 9.40104 10.7867 9.19873 10.7862C7.64915 10.7862 6.1136 9.2429 5.54303 7.11511C5.22501 5.92466 5.25151 4.87841 5.6163 3.87511C5.9733 2.88563 6.61869 2.22136 7.42934 1.99585C7.62421 1.94216 7.82531 1.91455 8.02953 1.91455C9.90025 1.91455 11.1037 2.67852 11.8489 5.2558ZM23.9899 10.4318V5.82955H20.872V10.4318H16.1952V13.5H20.872V18.1023H23.9899V13.5H28.6667V10.4318H23.9899Z" fill="#D53D5C"/>
</svg>
