<svg width="28" height="26" viewBox="0 0 28 26" fill="none" xmlns="http://www.w3.org/2000/svg">
<path d="M20.3 0C17.864 0 15.526 1.134 14 2.926C12.474 1.134 10.136 0 7.7 0C3.388 0 0 3.388 0 7.7C0 12.992 4.76 17.304 11.97 23.856L14 25.69L16.03 23.842C23.24 17.304 28 12.992 28 7.7C28 3.388 24.612 0 20.3 0ZM14.14 21.77L14 21.91L13.86 21.77C7.196 15.736 2.8 11.746 2.8 7.7C2.8 4.9 4.9 2.8 7.7 2.8C9.856 2.8 11.956 4.186 12.698 6.104H15.316C16.044 4.186 18.144 2.8 20.3 2.8C23.1 2.8 25.2 4.9 25.2 7.7C25.2 11.746 20.804 15.736 14.14 21.77Z" fill="#76607A"/>
</svg>
