<svg width="48" height="48" viewBox="0 0 48 48" fill="none" xmlns="http://www.w3.org/2000/svg">
<path d="M42.6668 19.9997H41.3335V11.9997C41.3335 11.646 41.193 11.3069 40.943 11.0569C40.6929 10.8068 40.3538 10.6663 40.0002 10.6663H8.00018C7.68446 10.6715 7.37716 10.5644 7.133 10.3642C6.88883 10.164 6.72364 9.88362 6.66685 9.57301V9.09301C6.72364 8.7824 6.88883 8.50202 7.133 8.30181C7.37716 8.10159 7.68446 7.99452 8.00018 7.99967H39.4402C39.7938 7.99967 40.1329 7.8592 40.383 7.60915C40.633 7.3591 40.7735 7.01996 40.7735 6.66634C40.7735 6.31272 40.633 5.97358 40.383 5.72353C40.1329 5.47348 39.7938 5.33301 39.4402 5.33301H8.00018C6.93932 5.33301 5.9219 5.75444 5.17176 6.50458C4.42161 7.25473 4.00018 8.27214 4.00018 9.33301C3.99082 9.49287 3.99082 9.65314 4.00018 9.81301V37.2397C4.00542 37.9576 4.152 38.6674 4.43158 39.3286C4.71115 39.9899 5.11823 40.5896 5.62957 41.0935C6.14092 41.5974 6.74651 41.9957 7.41178 42.2655C8.07704 42.5354 8.78895 42.6716 9.50685 42.6663H40.0002C40.3538 42.6663 40.6929 42.5259 40.943 42.2758C41.193 42.0258 41.3335 41.6866 41.3335 41.333V33.333H42.6668C43.0205 33.333 43.3596 33.1925 43.6097 32.9425C43.8597 32.6924 44.0002 32.3533 44.0002 31.9997V21.333C44.0002 20.9794 43.8597 20.6402 43.6097 20.3902C43.3596 20.1401 43.0205 19.9997 42.6668 19.9997ZM38.6668 39.9997H9.50685C8.76525 40.0068 8.05082 39.7209 7.51897 39.204C6.98712 38.6871 6.68087 37.9812 6.66685 37.2397V13.173C7.09965 13.2984 7.55 13.3525 8.00018 13.333H38.6668V19.9997H29.3335C27.5654 19.9997 25.8697 20.702 24.6195 21.9523C23.3692 23.2025 22.6668 24.8982 22.6668 26.6663C22.6668 28.4344 23.3692 30.1301 24.6195 31.3804C25.8697 32.6306 27.5654 33.333 29.3335 33.333H38.6668V39.9997ZM41.3335 30.6663H29.3335C28.2726 30.6663 27.2552 30.2449 26.5051 29.4948C25.7549 28.7446 25.3335 27.7272 25.3335 26.6663C25.3335 25.6055 25.7549 24.5881 26.5051 23.8379C27.2552 23.0878 28.2726 22.6663 29.3335 22.6663H41.3335V30.6663Z" fill="#908294"/>
<path d="M30.6799 28.667C31.7845 28.667 32.6799 27.7716 32.6799 26.667C32.6799 25.5624 31.7845 24.667 30.6799 24.667C29.5754 24.667 28.6799 25.5624 28.6799 26.667C28.6799 27.7716 29.5754 28.667 30.6799 28.667Z" fill="#908294"/>
</svg>
