<svg width="33" height="28" viewBox="0 0 33 28" fill="none" xmlns="http://www.w3.org/2000/svg">
<path d="M29.3883 7.32824C29.41 7.61991 29.41 7.90991 29.41 8.19991C29.41 17.0749 22.655 27.3016 10.31 27.3016C6.50667 27.3016 2.97333 26.1999 0 24.2866C0.54 24.3482 1.06 24.3699 1.62167 24.3699C4.64332 24.3772 7.57941 23.3668 9.95667 21.5016C8.5557 21.4762 7.19763 21.014 6.07206 20.1795C4.9465 19.3449 4.10964 18.1797 3.67833 16.8466C4.09333 16.9082 4.51 16.9499 4.94667 16.9499C5.54833 16.9499 6.15333 16.8666 6.715 16.7216C5.1946 16.4146 3.82746 15.5905 2.84603 14.3894C1.86461 13.1883 1.32949 11.6843 1.33167 10.1332V10.0499C2.22667 10.5482 3.265 10.8599 4.365 10.9016C3.44348 10.2892 2.68787 9.45828 2.16557 8.48289C1.64327 7.50751 1.37052 6.418 1.37167 5.31158C1.37167 4.06491 1.70333 2.92158 2.285 1.92491C3.9719 3.99994 6.07584 5.69751 8.46056 6.90767C10.8453 8.11783 13.4576 8.8136 16.1283 8.94991C16.025 8.44991 15.9617 7.93158 15.9617 7.41158C15.9612 6.52984 16.1346 5.65667 16.4718 4.84198C16.809 4.02728 17.3035 3.28703 17.927 2.66356C18.5505 2.04008 19.2907 1.54559 20.1054 1.20837C20.9201 0.871152 21.7933 0.697805 22.675 0.698243C24.6083 0.698243 26.3533 1.50824 27.58 2.81824C29.083 2.5276 30.5242 1.97895 31.84 1.19658C31.339 2.74794 30.2896 4.06342 28.8883 4.89658C30.2213 4.74454 31.5241 4.394 32.7533 3.85658C31.8352 5.19507 30.6975 6.36882 29.3883 7.32824V7.32824Z" fill="#D53D5C"/>
</svg>
