<svg width="38" height="27" viewBox="0 0 38 27" fill="none" xmlns="http://www.w3.org/2000/svg">
<path d="M36.7631 4.13064C36.5496 3.33827 36.1322 2.61565 35.5526 2.0347C34.9729 1.45376 34.2513 1.03475 33.4594 0.819389C30.5231 0.0131389 18.7763 1.42435e-05 18.7763 1.42435e-05C18.7763 1.42435e-05 7.03125 -0.0131111 4.09313 0.757514C3.30174 0.982788 2.58154 1.40772 2.00169 1.99152C1.42183 2.57531 1.00179 3.29837 0.781878 4.09126C0.00750309 7.02751 2.74715e-06 13.1175 2.74715e-06 13.1175C2.74715e-06 13.1175 -0.00749722 19.2375 0.761253 22.1438C1.1925 23.7506 2.45813 25.02 4.06688 25.4531C7.03313 26.2594 18.7481 26.2725 18.7481 26.2725C18.7481 26.2725 30.495 26.2856 33.4313 25.5169C34.2234 25.3019 34.9458 24.8839 35.5269 24.3041C36.1079 23.7243 36.5276 23.003 36.7444 22.2113C37.5206 19.2769 37.5263 13.1888 37.5263 13.1888C37.5263 13.1888 37.5638 7.06689 36.7631 4.13064V4.13064ZM15.0188 18.7594L15.0281 7.50939L24.7913 13.1438L15.0188 18.7594V18.7594Z" fill="#F7D7FF"/>
</svg>
